<svg width="270" height="293" viewBox="0 0 270 293" fill="none" xmlns="http://www.w3.org/2000/svg">
<path d="M0 81.3554V220.354C0 223.989 1.97202 227.337 5.15061 229.1L39.9582 248.401C46.6234 252.097 54.8076 247.277 54.8076 239.655V111.736C54.8076 108.172 56.7046 104.877 59.7869 103.088L129.698 62.5011C135.162 59.3293 142.14 62.0245 142.505 68.3314C144.033 94.7795 126.584 133.968 76.6268 171.436L186.39 108.856C189.51 107.077 191.437 103.761 191.437 100.169V40.6038C191.437 37.0185 189.518 33.7076 186.406 31.926L135.65 2.8603C132.558 1.08962 128.757 1.09801 125.673 2.88233L4.99235 72.6996C1.90265 74.487 0 77.7859 0 81.3554Z" fill="white"/>
<path d="M269.363 211.645V72.6456C269.363 69.0111 267.391 65.6627 264.212 63.9002L229.404 44.5992C222.739 40.9034 214.555 45.7234 214.555 53.3447V181.264C214.555 184.828 212.658 188.123 209.576 189.912L139.664 230.499C134.201 233.671 127.222 230.975 126.858 224.669C125.33 198.22 142.778 159.032 192.736 121.564L82.9726 184.144C79.8521 185.923 77.9255 189.239 77.9255 192.831V252.396C77.9255 255.981 79.8449 259.292 82.9561 261.074L133.713 290.14C136.805 291.91 140.605 291.902 143.69 290.118L264.37 220.3C267.46 218.513 269.363 215.214 269.363 211.645Z" fill="white"/>
</svg>
